# xmcd
#
# Track frame offsets: 
#        150
#        17615
#        32401
#        47365
#        65238
#        81791
#        97031
#        110272
#        129091
#        143539
#        166950
#        183562
#        198473
#        212573
#
# Disc length: 3076 seconds
#
# Revision: 0
# Processed by: cddbd v1.5.2PL0 Copyright (c) Steve Scherf et al.
# Submitted via: ExactAudioCopy v0.95a5
#
DISCID=b30c020e
DTITLE=Romek Puchowski - Simplyq
DYEAR=2006
DGENRE=Bluesq
TTITLE0=Barba
TTITLE1=Come on in my kitchen
TTITLE2=Kindhearted Womman Blues
TTITLE3=Make me A Pallet On Your Floor
TTITLE4=Stones In My Passway
TTITLE5=West Indian Waltz
TTITLE6=Preaching Blues ( Up Jumped The Devil
TTITLE7=Walking On The Delta
TTITLE8=The Rainbow
TTITLE9=Matherless Children Have A Hard Time
TTITLE10=Georgia On MY Mind
TTITLE11=Hesitation Blues
TTITLE12=Walking Blues
TTITLE13=Dark Was The Night And Cold Was The Ground
EXTD=
EXTT0=
EXTT1=
EXTT2=
EXTT3=
EXTT4=
EXTT5=
EXTT6=
EXTT7=
EXTT8=
EXTT9=
EXTT10=
EXTT11=
EXTT12=
EXTT13=
PLAYORDER=
